<svg xmlns="http://www.w3.org/2000/svg" version="1.1" xmlns:xlink="http://www.w3.org/1999/xlink" xmlns:svgjs="http://svgjs.dev/svgjs" width="1000" height="244" viewBox="0 0 1000 244"><g transform="matrix(1,0,0,1,-0.6060606060606801,0.039635927254522585)"><svg viewBox="0 0 396 97" data-background-color="#ffffff" preserveAspectRatio="xMidYMid meet" height="244" width="1000" xmlns="http://www.w3.org/2000/svg" xmlns:xlink="http://www.w3.org/1999/xlink"><g id="tight-bounds" transform="matrix(1,0,0,1,0.24000000000003752,-0.015756905506918883)"><svg viewBox="0 0 395.5199999999999 97.03151381101385" height="97.03151381101385" width="395.5199999999999"><g><svg viewBox="0 0 397.4975999999999 97.51667138006891" height="97.03151381101385" width="395.5199999999999"><g><rect width="397.4975999999999" height="2.98680684782654" x="0" y="53.590875707696235" fill="#4f46e5" opacity="1" stroke-width="0" stroke="transparent" fill-opacity="1" class="rect-r$-0" data-fill-palette-color="primary" rx="1%" id="r$-0" data-palette-color="#4f46e5"></rect></g><g transform="matrix(1,0,0,1,0.9887999999999693,64.39654864930954)"><svg viewBox="0 0 395.52 33.12012273075939" height="33.12012273075939" width="395.52"><g id="textblocktransform"><svg viewBox="0 0 395.52 33.12012273075939" height="33.12012273075939" width="395.52" id="textblock"><g><svg viewBox="0 0 395.52 33.12012273075939" height="33.12012273075939" width="395.52"><g transform="matrix(1,0,0,1,0,0)"><svg width="395.52" viewBox="-10.8 -32 391.08 32.75" height="33.12012273075939" data-palette-color="#4f46e5"><g class="wordmark-text-0" data-fill-palette-color="primary" id="text-0"><path d="M9.75-16.85L9.6-15.85Q9.5-15.45 9.4-14.75L9.4-14.75-10.25-16.85 9.75-16.85ZM-10.8-12.05L9.05-12.05Q8.9-10.9 8.9-9.95L8.9-9.95-10.8-12.05ZM-9.05-21.65L10.95-21.65 10.35-19.6-9.05-21.65ZM-10.15-7.25L8.95-7.25Q9.15-5.85 9.3-5.15L9.3-5.15-10.15-7.25ZM-6.7-26.45L13-26.45Q12.3-25.15 12-24.45L12-24.45-6.7-26.45ZM-5.35-2.4L10.45-2.4Q11.1-1.25 11.95-0.55L11.95-0.55-5.35-2.4ZM0.2-31.25L17.75-31.25Q16.3-30.35 15.5-29.6L15.5-29.6 0.2-31.25ZM22.15 0.75L22.15 0.75Q15.85 0.75 13.13-1.7 10.4-4.15 10.4-9.25L10.4-9.25Q10.4-11.4 11.1-15.6L11.1-15.6Q12.6-24.2 16.28-28.1 19.95-32 27.9-32L27.9-32Q29.75-32 32.13-31.63 34.5-31.25 35.6-30.7L35.6-30.7 32.8-23.05Q29.85-23.75 27.28-23.75 24.7-23.75 23.6-23.25 22.5-22.75 22.25-21.25L22.25-21.25 19.95-8.15Q21.75-7.75 23.65-7.75L23.65-7.75Q27.7-7.75 31.05-8.95L31.05-8.95 30.25-0.55Q27.05 0.75 22.15 0.75ZM48.95-26.45L61.65-26.45Q68.95-26.45 68.95-19.85L68.95-19.85Q68.95-16.85 67.75-13.63 66.55-10.4 63.7-8.8L63.7-8.8 66.55 0 57.2 0 55.3-7.7 54.1-7.7 52.75 0 44.35 0 48.95-26.45ZM59.5-16.05L59.8-17.8Q59.8-17.85 59.85-18.3L59.85-18.3Q59.85-19.15 57.2-19.15L57.2-19.15 56.1-19.15 55.3-14.55 56.9-14.55Q59.2-14.55 59.5-16.05L59.5-16.05ZM43.1-2.4L42.7-0.15 21.5-2.4 43.1-2.4ZM44.8-12.05L44.4-9.8 23.2-12.05 44.8-12.05ZM45.65-16.85L45.25-14.6 24.05-16.85 45.65-16.85ZM46.5-21.65L46.1-19.4 24.9-21.65 46.5-21.65ZM47.3-26.45L46.95-24.2 25.75-26.45 47.3-26.45ZM43.95-7.25L43.55-5 22.35-7.25 43.95-7.25ZM82.3-2.4L81.9-0.15 60.7-2.4 82.3-2.4ZM83.15-7.25L82.75-5 61.55-7.25 83.15-7.25ZM80.3-21.65L80.75-19.4 59.55-21.65 80.3-21.65ZM79.3-26.45L79.75-24.2 58.55-26.45 79.3-26.45ZM81.3-16.85L81.75-14.6 60.55-16.85 81.3-16.85ZM82.25-12.05L82.75-9.8 61.55-12.05 82.25-12.05ZM80.8-26.45L89.4-26.45 90.5-16.85 90.8-16.85 94.95-26.45 103.7-26.45 93.1-7.55 91.85 0 83.4 0 84.7-7.55 80.8-26.45ZM126.49-6.2L126.49-6.2 121.64-6.2 120.54 0 112.14 0 116.74-26.45 129.44-26.45Q136.69-26.45 136.69-19.6L136.69-19.6Q136.69-16.5 135.79-13.9 134.89-11.3 133.84-9.8 132.79-8.3 130.87-7.25 128.94-6.2 126.49-6.2ZM126.99-14.4L127.59-17.8Q127.59-17.85 127.64-18.1L127.64-18.1Q127.64-19.15 125.49-19.15L125.49-19.15 123.89-19.15 122.84-12.95 124.39-12.95Q125.54-12.95 126.19-13.23 126.84-13.5 126.99-14.4L126.99-14.4ZM110.89-2.4L110.49-0.15 89.29-2.4 110.89-2.4ZM112.59-12.05L112.19-9.8 90.99-12.05 112.59-12.05ZM113.44-16.85L113.04-14.6 91.84-16.85 113.44-16.85ZM114.29-21.65L113.89-19.4 92.69-21.65 114.29-21.65ZM115.09-26.45L114.74-24.2 93.54-26.45 115.09-26.45ZM111.74-7.25L111.34-5 90.14-7.25 111.74-7.25ZM169.39-26.45L168.04-18.95 162.64-18.95 159.34 0 150.54 0 153.84-18.95 148.29-18.95 149.64-26.45 169.39-26.45ZM149.44-2.4L149.04-0.15 127.84-2.4 149.44-2.4ZM151.14-12.05L150.74-9.8 129.54-12.05 151.14-12.05ZM151.99-16.85L151.59-14.6 130.39-16.85 151.99-16.85ZM147.19-21.65L146.79-19.4 125.59-21.65 147.19-21.65ZM147.99-26.45L147.64-24.2 126.44-26.45 147.99-26.45ZM150.29-7.25L149.89-5 128.69-7.25 150.29-7.25ZM193.29-26.95L193.29-26.95Q198.69-26.95 200.99-24.88 203.29-22.8 203.29-18.4L203.29-18.4Q203.29-16.25 202.74-13.2L202.74-13.2Q201.49-6 198.34-2.7 195.19 0.6 188.44 0.6L188.44 0.6Q183.14 0.6 180.89-1.48 178.64-3.55 178.64-7.9L178.64-7.9Q178.64-10.15 179.19-13.2L179.19-13.2Q180.44-20.4 183.54-23.68 186.64-26.95 193.29-26.95ZM186.94-7L189.89-7Q191.34-7 192.06-7.35 192.79-7.7 193.04-8.9L193.04-8.9 194.94-19.35 191.89-19.35Q190.49-19.35 189.71-19 188.94-18.65 188.79-17.5L188.79-17.5 186.94-7ZM157.49-12.05L177.44-12.05Q177.24-10.5 177.19-9.95L177.19-9.95 157.49-12.05ZM158.39-16.85L178.39-16.85 177.94-14.75 158.39-16.85ZM157.69-7.25L177.14-7.25Q177.14-6.45 177.34-5.15L177.34-5.15 157.69-7.25ZM160.39-21.65L180.14-21.65Q179.54-20.35 179.29-19.65L179.29-19.65 160.39-21.65ZM162.04-2.4L178.19-2.4Q178.79-1.2 179.49-0.55L179.49-0.55 162.04-2.4ZM167.09-26.45L184.49-26.45Q183.29-25.75 182.44-24.8L182.44-24.8 167.09-26.45ZM236.94-19.05L235.59-11.6 227.49-11.6 225.49 0 215.99 0 221.49-31.25 240.99-31.25 238.34-23.25 229.54-23.25 228.84-19.05 236.94-19.05ZM214.89-2.4L214.49-0.15 193.29-2.4 214.89-2.4ZM216.59-12.05L216.19-9.8 194.99-12.05 216.59-12.05ZM217.44-16.85L217.04-14.6 195.84-16.85 217.44-16.85ZM218.29-21.65L217.89-19.4 196.69-21.65 218.29-21.65ZM219.09-26.45L218.74-24.2 197.54-26.45 219.09-26.45ZM215.74-7.25L215.34-5 194.14-7.25 215.74-7.25ZM219.94-31.25L219.54-29 198.39-31.25 219.94-31.25ZM264.53-26.95L264.53-26.95Q269.93-26.95 272.23-24.88 274.53-22.8 274.53-18.4L274.53-18.4Q274.53-16.25 273.98-13.2L273.98-13.2Q272.73-6 269.58-2.7 266.43 0.6 259.68 0.6L259.68 0.6Q254.38 0.6 252.13-1.48 249.88-3.55 249.88-7.9L249.88-7.9Q249.88-10.15 250.43-13.2L250.43-13.2Q251.68-20.4 254.78-23.68 257.88-26.95 264.53-26.95ZM258.18-7L261.13-7Q262.58-7 263.31-7.35 264.03-7.7 264.28-8.9L264.28-8.9 266.18-19.35 263.13-19.35Q261.73-19.35 260.96-19 260.18-18.65 260.03-17.5L260.03-17.5 258.18-7ZM228.73-12.05L248.68-12.05Q248.48-10.5 248.43-9.95L248.43-9.95 228.73-12.05ZM229.63-16.85L249.63-16.85 249.18-14.75 229.63-16.85ZM228.93-7.25L248.38-7.25Q248.38-6.45 248.58-5.15L248.58-5.15 228.93-7.25ZM231.63-21.65L251.38-21.65Q250.78-20.35 250.53-19.65L250.53-19.65 231.63-21.65ZM233.28-2.4L249.43-2.4Q250.03-1.2 250.73-0.55L250.73-0.55 233.28-2.4ZM238.33-26.45L255.73-26.45Q254.53-25.75 253.68-24.8L253.68-24.8 238.33-26.45ZM291.83-26.45L304.53-26.45Q311.83-26.45 311.83-19.85L311.83-19.85Q311.83-16.85 310.63-13.63 309.43-10.4 306.58-8.8L306.58-8.8 309.43 0 300.08 0 298.18-7.7 296.98-7.7 295.63 0 287.23 0 291.83-26.45ZM302.38-16.05L302.68-17.8Q302.68-17.85 302.73-18.3L302.73-18.3Q302.73-19.15 300.08-19.15L300.08-19.15 298.98-19.15 298.18-14.55 299.78-14.55Q302.08-14.55 302.38-16.05L302.38-16.05ZM285.98-2.4L285.58-0.15 264.38-2.4 285.98-2.4ZM287.68-12.05L287.28-9.8 266.08-12.05 287.68-12.05ZM288.53-16.85L288.13-14.6 266.93-16.85 288.53-16.85ZM289.38-21.65L288.98-19.4 267.78-21.65 289.38-21.65ZM290.18-26.45L289.83-24.2 268.63-26.45 290.18-26.45ZM286.83-7.25L286.43-5 265.23-7.25 286.83-7.25ZM345.83-15.55L343.33-1.4Q338.23 0.6 332.93 0.6 327.63 0.6 325.38-1.48 323.13-3.55 323.13-7.9L323.13-7.9Q323.13-10.05 323.83-14.05 324.53-18.05 325.98-20.9L325.98-20.9Q329.13-26.95 338.73-26.95L338.73-26.95Q344.33-26.95 346.53-25.85L346.53-25.85 343.98-18.9Q340.83-19.6 338.3-19.6 335.78-19.6 334.73-19.25 333.68-18.9 333.48-17.9L333.48-17.9 331.38-6.4 333.68-6.4Q334.93-6.4 335.6-6.68 336.28-6.95 336.43-7.9L336.43-7.9 336.78-9.85 334.73-9.85 335.73-15.55 345.83-15.55ZM301.98-12.05L321.93-12.05Q321.73-10.5 321.68-9.95L321.68-9.95 301.98-12.05ZM302.88-16.85L322.88-16.85 322.43-14.75 302.88-16.85ZM302.18-7.25L321.63-7.25Q321.63-6.45 321.83-5.15L321.83-5.15 302.18-7.25ZM304.88-21.65L324.63-21.65Q324.03-20.35 323.78-19.65L323.78-19.65 304.88-21.65ZM306.53-2.4L322.68-2.4Q323.28-1.2 323.98-0.55L323.98-0.55 306.53-2.4ZM311.58-26.45L328.98-26.45Q327.78-25.75 326.93-24.8L326.93-24.8 311.58-26.45ZM376.68-15.55L375.83-10.75 368.38-10.75 367.78-7.35 377.03-7.35 375.73 0 358.08 0 362.68-26.45 380.28-26.45 377.93-18.95 369.78-18.95 369.18-15.55 376.68-15.55ZM356.83-2.4L356.43-0.15 335.23-2.4 356.83-2.4ZM358.53-12.05L358.13-9.8 336.93-12.05 358.53-12.05ZM359.38-16.85L358.98-14.6 337.78-16.85 359.38-16.85ZM360.23-21.65L359.83-19.4 338.63-21.65 360.23-21.65ZM361.03-26.45L360.68-24.2 339.48-26.45 361.03-26.45ZM357.68-7.25L357.28-5 336.08-7.25 357.68-7.25Z" fill="#4f46e5" data-fill-palette-color="primary"></path></g></svg></g></svg></g></svg></g></svg></g><g transform="matrix(1,0,0,1,158.1157271188538,0)"><svg viewBox="0 0 81.26614576229231 45.77200961390948" height="45.77200961390948" width="81.26614576229231"><g><svg xmlns="http://www.w3.org/2000/svg" xmlns:xlink="http://www.w3.org/1999/xlink" version="1.1" x="0" y="0" viewBox="4.999632445225871 24.654 90.00136755477413 50.69200000000001" enable-background="new 0 0 100 100" xml:space="preserve" height="45.77200961390948" width="81.26614576229231" class="icon-icon-0" data-fill-palette-color="accent" id="icon-0"><path d="M8.959 28.656h21.177c0.501 0 0.834-0.333 0.834-0.834v-2.334c0-0.5 0.333-0.834 0.834-0.834h45.021c0.5 0 0.834 0.334 0.834 0.834v2.334c0 0.501 0.333 0.834 0.834 0.834h15.674c0.5 0 0.834 0.334 0.834 0.834v17.008c0 0.5-0.334 0.834-0.834 0.834-13.174 0.167-16.508 3.836-16.508 11.172 0 7.504 1.334 9.172 7.17 9.338 0.5 0 0.834 0.334 0.834 0.834v5.836c0 0.5-0.334 0.834-0.834 0.834H31.804c-0.501 0-0.834-0.334-0.834-0.834v-5.836c0-0.5 0.333-0.834 0.834-0.834h1.334c4.835 0 6.003-1.834 6.003-9.338 0-11.506-28.681-12.339-33.517-25.846C4.29 29.49 4.957 28.656 8.959 28.656z" fill="#4f46e5" data-fill-palette-color="accent"></path></svg></g></svg></g><g></g></svg></g><defs></defs></svg><rect width="395.5199999999999" height="97.03151381101385" fill="none" stroke="none" visibility="hidden"></rect></g></svg></g></svg>